<svg width="12" height="12" viewBox="0 0 12 12" fill="none" xmlns="http://www.w3.org/2000/svg">
<path d="M4.89797 1.85205L8.64797 5.60205C8.70041 5.65431 8.74202 5.71641 8.77041 5.78478C8.7988 5.85315 8.81342 5.92646 8.81342 6.00049C8.81342 6.07452 8.7988 6.14783 8.77041 6.2162C8.74202 6.28457 8.70041 6.34667 8.64797 6.39893L4.89797 10.1489C4.7923 10.2546 4.64898 10.314 4.49954 10.314C4.35009 10.314 4.20677 10.2546 4.1011 10.1489C3.99543 10.0433 3.93606 9.89993 3.93606 9.75049C3.93606 9.60105 3.99543 9.45772 4.1011 9.35205L7.45313 6.00002L4.10063 2.64799C3.99496 2.54232 3.93559 2.399 3.93559 2.24955C3.93559 2.10011 3.99496 1.95679 4.10063 1.85111C4.2063 1.74544 4.34963 1.68608 4.49907 1.68608C4.64851 1.68608 4.79183 1.74544 4.89751 1.85111L4.89797 1.85205Z" fill="black" fill-opacity="0.6"/>
</svg>
